<?xml version="1.0" encoding="UTF-8"?>
<svg id="_x31_" xmlns="http://www.w3.org/2000/svg" version="1.1" viewBox="0 0 1331.11 861">
  <!-- Generator: Adobe Illustrator 30.6.0, SVG Export Plug-In . SVG Version: 2.1.4 Build 109)  -->
  <defs>
    <style>
      .st0 {
        fill: none;
        stroke: #000;
        stroke-linecap: round;
        stroke-linejoin: round;
        stroke-width: 2px;
      }
    </style>
  </defs>
  <path id="_x31_1" data-name="_x31_" class="st0" d="M1,595.31c127.69,53.4,124.46-44.27,273.95,2.32,201.13,62.68,202,209.66,429.63,84.36,390.26-214.82-207.99-505.68-183.6-204.74,25.17,310.55,510.69-139,324.4-315.13C645.3-27.05,138.52,119.43,420.68,385.23c115.5,108.8,556.21,457.39,195.19,474.54-254.63,12.09-425.07-453.75-156.94-574.83,84.5-38.15,295.95-36.1,412.38,61.15,148,123.62,141.2,407,85.35,390.04-97.54-29.61,29.94-150.01,123.6-240.3,242.03-233.32-360.99-431.43-565.1-174.2-235.33,296.59,196.98,479.38,350.95,264.75,76.99-107.33,1.17-396.09-159.47-361.24-232.33,50.41-130.71-191.92,16.68-218.93,103.42-18.95,244.57,12.43,284.67,114.43,90.64,230.56-181.69,279.83-250.93,441.08-79.13,184.28,370.17,312.91,345.53,76.53-9.59-91.97-111.09-4.85-49.33,34.24,91.69,58.05,153.23-81.84,276.85-55.72"/>
</svg>