<?xml version="1.0" encoding="UTF-8"?>
<svg xmlns="http://www.w3.org/2000/svg" version="1.1" viewBox="0 0 752.5 737.5">
  <!-- Generator: Adobe Illustrator 30.6.0, SVG Export Plug-In . SVG Version: 2.1.4 Build 109)  -->
  <defs>
    <style>
      .st0 {
        fill: none;
        stroke: #000;
        stroke-linecap: round;
        stroke-linejoin: round;
        stroke-width: 2px;
      }
    </style>
  </defs>
  <g id="_x31_">
    <path id="_x31_1" data-name="_x31_" class="st0" d="M201.61,133.63c-104.96,174.49,95.58,183.7,197.74,275.26,26.6,27.28,45.53,63.88,45.62,101.26-1.4,111.35-129.31,198.29-225.53,226.36"/>
  </g>
  <g id="_x39_">
    <path id="_x39_1" data-name="_x39_" class="st0" d="M643.91,128.54c-27.66-79.24,46.63-127.54,46.63-127.54,19.22,121.17-46.63,127.54-46.63,127.54Z"/>
  </g>
  <g id="_x38_">
    <path id="_x38_1" data-name="_x38_" class="st0" d="M610.4,222.39c46.47-28.77,77.26-68.62,141.1-31.99-48.15,53.12-102.94,55.58-141.1,31.99Z"/>
  </g>
  <g id="_x34_">
    <path id="_x34_1" data-name="_x34_" class="st0" d="M106.71,136.17c13.4,11.52,36.89,66.61,34.26,81.29l.33,1.52c9.55,6.4,25.19,19.19,34.51,25.87"/>
  </g>
  <g id="_x32_">
    <path id="_x32_1" data-name="_x32_" class="st0" d="M182.3,171.9c59.65-2.75,80.44-65.93,71.04-115.86-45.98,4.87-87.1,83.01-71.04,115.86Z"/>
  </g>
  <g id="_x33_">
    <path id="_x33_1" data-name="_x33_" class="st0" d="M533.37,736.5c-165.54-48.99-295.74-198.1-191.55-322.05,61.48-59.43,156.06-51.09,207.44-118.14,16.27-21.24,26.95-60.94,60.76-73.94,7-32.74-5.01-56.65,33.9-93.84"/>
  </g>
  <g id="_x34_2" data-name="_x34_">
    <path id="_x34_3" data-name="_x34_" class="st0" d="M544.07,165.73c5.29,9.55,27.15,21.44,25.95,34.64l3.28,6.12c4.1,10.52-.99,21.77,3.41,30.32,1.41,2.74,2.83,7.31,3.18,9.53"/>
  </g>
  <g id="_x35_">
    <path id="_x35_1" data-name="_x35_" class="st0" d="M570.15,201.21c-40.9-6.53-84.31-59.52-78.68-91.88,41.02,13.05,98.03,38.61,78.68,91.88Z"/>
  </g>
  <g id="_x36_">
    <path id="_x36_1" data-name="_x36_" class="st0" d="M141.29,218.98c-39.25-25.15-99.73-50.22-140.29-13.07,39.56,28.38,98.4,47.17,140.29,13.07Z"/>
  </g>
  <g id="_x37_">
    <path id="_x37_1" data-name="_x37_" class="st0" d="M106.71,136.17C115.4,83.4,70.69,30.5,25.03,8.77c1.53,79.94,37.36,122.91,81.67,127.4Z"/>
  </g>
</svg>