<?xml version="1.0" encoding="UTF-8"?>
<svg xmlns="http://www.w3.org/2000/svg" version="1.1" viewBox="0 0 1208.55 800.47">
  <!-- Generator: Adobe Illustrator 30.6.0, SVG Export Plug-In . SVG Version: 2.1.4 Build 109)  -->
  <defs>
    <style>
      .st0 {
        fill: none;
        stroke: #000;
        stroke-linecap: round;
        stroke-linejoin: round;
        stroke-width: 2px;
      }
    </style>
  </defs>
  <g id="_x32__x5F_circulo">
    <path id="_x32__x5F_circulo1" data-name="_x32__x5F_circulo" class="st0" d="M443.32,285.46c88.19-406.41,720.3-365.55,758.71,47.34,75.71,485.17-651.09,669.4-758.71,173.82"/>
  </g>
  <g id="_x31__x5F_linha">
    <path id="_x31__x5F_linha1" data-name="_x31__x5F_linha" class="st0" d="M1,482.92c45.71-11.21,56.49-65.86,98.72-82.97,63.68-29.63,88.98,97.12,152.05,51.36,25.76-19.75,55.35-60.47,82.87-19.67,70.72,91.38,54.43-86.92,106.68-82.7,35.59,12.15,32.15,65.12,47.19,94.57,48.78,145.74,235.09,192.48,361.67,118.53,250.33-142.41,14.01-431.18-180-233.34-75.3,77.05-22.42,214.25,86.88,149.94,35.09-25.71,33.84-91.6,93.09-84.95,45.08,6.23,58.94,40.2,59.32,80.5.09,9.62-6.96,39.67-14.06,56.33"/>
  </g>
</svg>