<?xml version="1.0" encoding="UTF-8"?>
<svg xmlns="http://www.w3.org/2000/svg" version="1.1" viewBox="0 0 957.65 831.69">
  <!-- Generator: Adobe Illustrator 30.6.0, SVG Export Plug-In . SVG Version: 2.1.4 Build 109)  -->
  <defs>
    <style>
      .st0 {
        fill: none;
        stroke: #000;
        stroke-linecap: round;
        stroke-linejoin: round;
        stroke-width: 2px;
      }
    </style>
  </defs>
  <g id="_x31_">
    <path id="_x31_1" data-name="_x31_" class="st0" d="M495.93,736.74c150.37-166.23,44.02-413.09-169.06-438.84-125.21-17.25-263.53,46.64-306.91,170.58-108.08,293.46,272.06,486.42,475.82,268.42l.15-.16Z"/>
  </g>
  <g id="_x32_">
    <path id="_x32_1" data-name="_x32_" class="st0" d="M557.55,490.27c154.01-27.23,228.31-214.12,159.46-346.76C670.14,32.72,538.87-17.14,425.69,6.94c-59.82,12.22-114.76,44.4-150.64,94.82-142.85,199.48,51.39,447.67,282.3,388.54l.2-.03Z"/>
  </g>
  <g id="_x33_">
    <path id="_x33_1" data-name="_x33_" class="st0" d="M493.92,744.18c125.24,137.83,392.66,110.8,448.16-79.79,27.1-92.76,18.55-197.44-43.79-273.12-241.69-272.3-656.16,70.7-404.48,352.78l.12.13Z"/>
  </g>
</svg>