<?xml version="1.0" encoding="UTF-8"?>
<svg xmlns="http://www.w3.org/2000/svg" version="1.1" viewBox="0 0 713.88 846.03">
  <!-- Generator: Adobe Illustrator 30.6.0, SVG Export Plug-In . SVG Version: 2.1.4 Build 109)  -->
  <defs>
    <style>
      .st0 {
        fill: none;
        stroke: #000;
        stroke-linecap: round;
        stroke-linejoin: round;
        stroke-width: 2px;
      }
    </style>
  </defs>
  <g id="_x31_">
    <path id="_x31_1" data-name="_x31_" class="st0" d="M363.32,845.03c281.85-74.65,98.25-503.46-151.45-340.85-69.07,59.25-79.42,141.82-53.08,223.81,36.88,81.65,180.04,98.43,221.39,21.64,33.89-51.29,15.95-137.95-53.49-142.18-46.41-9.25-91.15,54.86-51.28,88.6,18.61,21.46,57.85,3.6,49.34-25.57"/>
  </g>
  <g id="_x32_">
    <path id="_x32_1" data-name="_x32_" class="st0" d="M195.91,519.59c79.57-94.19,230.26-124.59,321.34,21.44,9.84,17.46,28.43,22.25,41.45,7.73,81.01-90.39,194.76-269.15,139.66-532.96-1.96-9.37-5.43-18.98-21.85-12.9-176.29,42.41-352.59,234.86-393.93,407.43-14.4-133.48-36.89-303.36-162.04-358.36-4.85-3.41-14.28-2.64-17.72,9.13-21.11,72.18-69.58,132.62-88.76,205.81-44.08,162.32,27.68,362.58,151.21,474.72"/>
  </g>
</svg>