<?xml version="1.0" encoding="UTF-8"?>
<svg xmlns="http://www.w3.org/2000/svg" version="1.1" viewBox="0 0 751.8 883.62">
  <!-- Generator: Adobe Illustrator 30.6.0, SVG Export Plug-In . SVG Version: 2.1.4 Build 109)  -->
  <defs>
    <style>
      .st0 {
        fill: none;
        stroke: #000;
        stroke-linecap: round;
        stroke-linejoin: round;
        stroke-width: 2px;
      }
    </style>
  </defs>
  <g id="_x31_">
    <path id="_x31_1" data-name="_x31_" class="st0" d="M547.82,1.54c-48.78-2.38-97.29,3.1-143.86,15.61-68.25,18.33-132.46,46.4-191.29,87.63-73.26,51.34-130.07,115.85-168.67,195.69C9.88,371.02-4.37,445.77,2.81,524.9c5.92,65.18,24.43,124.83,59.59,180.19,60.49,95.23,149,150.16,256.8,170.33,102.83,19.24,201.84.51,287.48-63.03,43.9-32.56,77.42-75.53,100.37-126.37,14.47-32.05,22.63-65.26,27.2-99.73"/>
  </g>
  <g id="_x32_">
    <path id="_x32_1" data-name="_x32_" class="st0" d="M721.54,429.51c-13.42-38.36-29.92-74.51-56.81-106.27-45.56-53.81-102.39-84.3-172.02-90.61-95.52-8.66-177.91,23.64-245.17,89.43-58.81,57.52-88.02,130.27-78.37,213.32,10.94,94.24,70.55,169.68,166.89,196.68,78.06,21.88,163.08-6.58,212.83-70.77,42.35-54.63,52.39-156,10.03-210.99-24.15-31.34-52.51-50.97-91.59-57.02-57.18-8.85-106.75,12.75-130.82,64.04-21.08,44.91-12.54,112.06,45.99,129.14,35.8,10.45,72.07-9.07,76.32-42.55,2.13-16.82-11.27-32.14-29.66-33.9"/>
  </g>
  <g id="_x33_">
    <circle id="_x33_1" data-name="_x33_" class="st0" cx="734.06" cy="511.08" r="16.75"/>
  </g>
</svg>